# xmcd CD database file
#
# Track frame offsets:
#        150
#        18470
#        40395
#        58715
#
# Disc length: 1071 seconds
#
# Revision: 0
# Processed by: cddbd v1.5.2PL0 Copyright (c) Steve Scherf et al.
# Submitted via: CUERipper 2.1.5
#
DISCID=2f042d04
DTITLE=ナイトメア - livEVIL
DYEAR=2005
DGENRE=
TTITLE0=livEVIL
TTITLE1=メアリー
TTITLE2=livEVIL(Instrumental)
TTITLE3=メアリー(Instrumental)
EXTD=
EXTT0=
EXTT1=
EXTT2=
EXTT3=
PLAYORDER=
